<svg xmlns="http://www.w3.org/2000/svg" viewBox="0 0 32 32" fill="none">
  <rect width="32" height="32" rx="8" fill="url(#g)"/>
  <defs>
    <linearGradient id="g" x1="0" y1="0" x2="32" y2="32">
      <stop stop-color="#4F46E5"/>
      <stop offset="1" stop-color="#7C3AED"/>
    </linearGradient>
  </defs>
  <path d="M8 16C8 12.686 10.686 10 14 10C15.894 10 17.56 10.895 18.66 12.3L20.5 10.4C18.92 8.36 16.4 7 14 7C9.03 7 5 11.03 5 16C5 20.97 9.03 25 14 25C16.4 25 18.92 23.64 20.5 21.6L18.66 19.7C17.56 21.105 15.894 22 14 22C10.686 22 8 19.314 8 16Z" fill="white"/>
  <circle cx="22" cy="16" r="5" fill="white" opacity="0.9"/>
</svg>